<svg xmlns="http://www.w3.org/2000/svg" width="32" height="32" viewBox="0 0 32 32"><g transform="translate(1276.826 -616.027)"><g stroke="#444166" transform="translate(-470.076 -508.085)"><path fill="#586597" style="line-height:normal;font-variant-ligatures:normal;font-variant-position:normal;font-variant-caps:normal;font-variant-numeric:normal;font-variant-alternates:normal;font-feature-settings:normal;text-indent:0;text-align:start;text-decoration-line:none;text-decoration-style:solid;text-decoration-color:#000;text-transform:none;text-orientation:mixed;shape-padding:0;isolation:auto;mix-blend-mode:normal" stroke="none" d="m -794.5,1124.1113 c -6.75957,0 -12.25,5.4905 -12.25,12.25 0,6.7596 5.49043,12.25 12.25,12.25 6.75957,0 12.25,-5.4904 12.25,-12.25 0,-6.7595 -5.49043,-12.25 -12.25,-12.25 z" color="#000" font-family="sans-serif" font-weight="400" overflow="visible"/><path fill="#fff" style="line-height:normal;font-variant-ligatures:normal;font-variant-position:normal;font-variant-caps:normal;font-variant-numeric:normal;font-variant-alternates:normal;font-feature-settings:normal;text-indent:0;text-align:start;text-decoration-line:none;text-decoration-style:solid;text-decoration-color:#000;text-transform:none;text-orientation:mixed;shape-padding:0;isolation:auto;mix-blend-mode:normal" stroke="none" d="m -794.5,1125.1113 c 6.21913,0 11.25,5.0309 11.25,11.25 0,6.2192 -5.03087,11.25 -11.25,11.25 -6.21913,0 -11.25,-5.0308 -11.25,-11.25 0,-6.2191 5.03087,-11.25 11.25,-11.25 z" color="#000" font-family="sans-serif" font-weight="400" overflow="visible"/><path fill="#d7edf2" d="m -794.5005,1126.6126 c 5.38991,0 9.75,4.3601 9.75,9.75 0,5.39 -4.36009,9.75 -9.75,9.75 -5.38991,0 -9.75,-4.36 -9.75,-9.75 0,-5.3899 4.36009,-9.75 9.75,-9.75 z" color="#000" font-family="sans-serif" font-weight="400" overflow="visible" style="line-height:normal;font-variant-ligatures:normal;font-variant-position:normal;font-variant-caps:normal;font-variant-numeric:normal;font-variant-alternates:normal;font-feature-settings:normal;text-indent:0;text-align:start;text-decoration-line:none;text-decoration-style:solid;text-decoration-color:#000;text-transform:none;text-orientation:mixed;shape-padding:0;isolation:auto;mix-blend-mode:normal" stroke="none"/><path fill="#586597" fill-rule="evenodd" stroke="none" d="m -1268.5762,-399.08594 c 0,1.51454 0.859,2.82122 2.1055,3.5 -1.247,0.67865 -2.1055,1.98514 -2.1055,3.5 0,1.51454 0.859,2.82122 2.1055,3.5 -1.247,0.67865 -2.1055,1.98514 -2.1055,3.5 h 1 c 0,-0.27263 0.048,-0.53058 0.1153,-0.78125 h 5.7695 c 0.067,0.25067 0.1152,0.50862 0.1152,0.78125 h 1 c 0,-1.51486 -0.8585,-2.82135 -2.1054,-3.5 1.2465,-0.67878 2.1054,-1.98546 2.1054,-3.5 0,-1.51486 -0.8585,-2.82135 -2.1054,-3.5 1.2465,-0.67878 2.1054,-1.98546 2.1054,-3.5 h -1 c 0,0.22007 -0.026,0.43431 -0.07,0.64063 h -5.8594 c -0.044,-0.20632 -0.07,-0.42056 -0.07,-0.64063 z" color="#000" font-family="sans-serif" style="line-height:normal;font-variant-ligatures:normal;font-variant-position:normal;font-variant-caps:normal;font-variant-numeric:normal;font-variant-alternates:normal;font-feature-settings:normal;text-indent:0;text-align:start;text-decoration-line:none;text-decoration-style:solid;text-decoration-color:#000;text-transform:none;text-orientation:mixed;shape-padding:0;isolation:auto;mix-blend-mode:normal" font-weight="400" overflow="visible" transform="translate(470.076 1528.447)"/><path fill="#eef396" fill-rule="evenodd" stroke="none" d="m -1267.0859,-397.44531 h 5.0214 c -0.5344,0.81853 -1.4564,1.35937 -2.5117,1.35937 -1.0552,0 -1.9753,-0.54087 -2.5097,-1.35937 z" color="#000" font-family="sans-serif" style="line-height:normal;font-variant-ligatures:normal;font-variant-position:normal;font-variant-caps:normal;font-variant-numeric:normal;font-variant-alternates:normal;font-feature-settings:normal;text-indent:0;text-align:start;text-decoration-line:none;text-decoration-style:solid;text-decoration-color:#000;text-transform:none;text-orientation:mixed;shape-padding:0;isolation:auto;mix-blend-mode:normal" font-weight="400" overflow="visible" transform="translate(470.076 1528.447)"/><path fill="#bcf3d3" fill-rule="evenodd" stroke="none" d="m -1264.5762,-395.08594 c 1.0062,0 1.8881,0.49485 2.4317,1.25 h -4.8614 c 0.5436,-0.75506 1.4236,-1.25 2.4297,-1.25 z" color="#000" font-family="sans-serif" style="line-height:normal;font-variant-ligatures:normal;font-variant-position:normal;font-variant-caps:normal;font-variant-numeric:normal;font-variant-alternates:normal;font-feature-settings:normal;text-indent:0;text-align:start;text-decoration-line:none;text-decoration-style:solid;text-decoration-color:#000;text-transform:none;text-orientation:mixed;shape-padding:0;isolation:auto;mix-blend-mode:normal" font-weight="400" overflow="visible" transform="translate(470.076 1528.447)"/><path fill="#eef396" fill-rule="evenodd" stroke="none" d="m -1267.4707,-392.83594 h 5.7891 c 0.062,0.24114 0.1054,0.48889 0.1054,0.75 0,0.26063 -0.044,0.50927 -0.1054,0.75 h -5.7891 c -0.062,-0.24073 -0.1055,-0.48937 -0.1055,-0.75 0,-0.26111 0.043,-0.50886 0.1055,-0.75 z" color="#000" font-family="sans-serif" style="line-height:normal;font-variant-ligatures:normal;font-variant-position:normal;font-variant-caps:normal;font-variant-numeric:normal;font-variant-alternates:normal;font-feature-settings:normal;text-indent:0;text-align:start;text-decoration-line:none;text-decoration-style:solid;text-decoration-color:#000;text-transform:none;text-orientation:mixed;shape-padding:0;isolation:auto;mix-blend-mode:normal" font-weight="400" overflow="visible" transform="translate(470.076 1528.447)"/><path fill="#bcf3d3" fill-rule="evenodd" stroke="none" d="m -1267.0059,-390.33594 h 4.8614 c -0.5436,0.75526 -1.4254,1.25 -2.4317,1.25 -1.0062,0 -1.8861,-0.49483 -2.4297,-1.25 z" color="#000" font-family="sans-serif" style="line-height:normal;font-variant-ligatures:normal;font-variant-position:normal;font-variant-caps:normal;font-variant-numeric:normal;font-variant-alternates:normal;font-feature-settings:normal;text-indent:0;text-align:start;text-decoration-line:none;text-decoration-style:solid;text-decoration-color:#000;text-transform:none;text-orientation:mixed;shape-padding:0;isolation:auto;mix-blend-mode:normal" font-weight="400" overflow="visible" transform="translate(470.076 1528.447)"/><path fill="#eef396" fill-rule="evenodd" stroke="none" d="m -1264.5762,-388.08594 c 0.9917,0 1.8608,0.48212 2.4063,1.21875 h -4.8106 c 0.5455,-0.7365 1.4128,-1.21875 2.4043,-1.21875 z" color="#000" font-family="sans-serif" style="line-height:normal;font-variant-ligatures:normal;font-variant-position:normal;font-variant-caps:normal;font-variant-numeric:normal;font-variant-alternates:normal;font-feature-settings:normal;text-indent:0;text-align:start;text-decoration-line:none;text-decoration-style:solid;text-decoration-color:#000;text-transform:none;text-orientation:mixed;shape-padding:0;isolation:auto;mix-blend-mode:normal" font-weight="400" overflow="visible" transform="translate(470.076 1528.447)"/><path fill="#586597" fill-rule="evenodd" style="line-height:normal;font-variant-ligatures:normal;font-variant-position:normal;font-variant-caps:normal;font-variant-numeric:normal;font-variant-alternates:normal;font-feature-settings:normal;text-indent:0;text-align:start;text-decoration-line:none;text-decoration-style:solid;text-decoration-color:#000;text-transform:none;text-orientation:mixed;shape-padding:0;isolation:auto;mix-blend-mode:normal" stroke="none" d="m -785.64648,1144.5078 -0.70704,0.707 3.25,3.25 0.70704,-0.707 z" color="#000" font-family="sans-serif" font-weight="400" overflow="visible"/><path fill="#586597" style="line-height:normal;font-variant-ligatures:normal;font-variant-position:normal;font-variant-caps:normal;font-variant-numeric:normal;font-variant-alternates:normal;font-feature-settings:normal;text-indent:0;text-align:start;text-decoration-line:none;text-decoration-style:solid;text-decoration-color:#000;text-transform:none;text-orientation:mixed;shape-padding:0;isolation:auto;mix-blend-mode:normal" stroke="none" d="m -781.54492,1146.1113 a 0.50004997,0.50004997 0 0 0 -0.3457,0.1465 l -2.7129,2.7129 a 0.50004997,0.50004997 0 0 0 0,0.707 l 6.28711,6.2871 a 0.50004997,0.50004997 0 0 0 0.70703,0 l 2.7129,-2.7109 a 0.50004997,0.50004997 0 0 0 0,-0.707 l -6.28711,-6.2891 a 0.50004997,0.50004997 0 0 0 -0.36133,-0.1465 z" color="#000" font-family="sans-serif" font-weight="400" overflow="visible"/><path fill="#f6c490" style="line-height:normal;font-variant-ligatures:normal;font-variant-position:normal;font-variant-caps:normal;font-variant-numeric:normal;font-variant-alternates:normal;font-feature-settings:normal;text-indent:0;text-align:start;text-decoration-line:none;text-decoration-style:solid;text-decoration-color:#000;text-transform:none;text-orientation:mixed;shape-padding:0;isolation:auto;mix-blend-mode:normal" stroke="none" d="m -781.53692,1147.3184 5.58008,5.582 -2.00586,2.0039 -5.58008,-5.5801 z" color="#000" font-family="sans-serif" font-weight="400" overflow="visible"/><path fill="#586597" style="line-height:normal;font-variant-ligatures:normal;font-variant-position:normal;font-variant-caps:normal;font-variant-numeric:normal;font-variant-alternates:normal;font-feature-settings:normal;text-indent:0;text-align:start;text-decoration-line:none;text-decoration-style:solid;text-decoration-color:#000;text-transform:none;text-orientation:mixed;shape-padding:0;isolation:auto;mix-blend-mode:normal" stroke="none" d="m -793.07031,1126.4668 c -2.31348,-0.3342 -4.74163,0.1378 -6.83399,1.4824 a 0.50005,0.50005 0 1 0 0.53907,0.8418 c 3.7722,-2.4242 8.74388,-1.7071 11.67578,1.6856 2.93182,3.3927 2.92199,8.4159 -0.0234,11.7968 -2.94533,3.381 -7.9191,4.0798 -11.68164,1.6407 -3.76256,-2.4392 -5.1557,-7.2651 -3.27149,-11.334 a 0.50028573,0.50028573 0 1 0 -0.9082,-0.4199 c -2.09026,4.5138 -0.53926,9.8878 3.63477,12.5937 4.174,2.7059 9.71305,1.9285 12.98047,-1.8223 3.26753,-3.7506 3.27783,-9.3436 0.0254,-13.1074 -1.62627,-1.8818 -3.82325,-3.0232 -6.13672,-3.3574 z" color="#000" font-family="sans-serif" font-weight="400" overflow="visible"/></g><path fill="#586597" d="m -1271.4194,622.04352 a 0.5,0.5 0 0 1 -0.5,0.5 0.5,0.5 0 0 1 -0.5,-0.5 0.5,0.5 0 0 1 0.5,-0.5 0.5,0.5 0 0 1 0.5,0.5 z"/></g></svg>