<svg xmlns="http://www.w3.org/2000/svg" width="512" height="512" viewBox="0 0 135.467 135.467"><path fill="#ffe082" d="M 101.60938,48.669922 A 2.1168782,2.1168782 0 0 0 100.6543,48.90625 L 66.787109,65.839844 a 2.1168782,2.1168782 0 1 0 1.892579,3.787109 L 102.54688,52.693359 a 2.1168782,2.1168782 0 0 0 -0.9375,-4.023437 z" color="#000" font-family="sans-serif" font-weight="400" overflow="visible" style="line-height:normal;font-variant-ligatures:normal;font-variant-position:normal;font-variant-caps:normal;font-variant-numeric:normal;font-variant-alternates:normal;font-feature-settings:normal;text-indent:0;text-align:start;text-decoration-line:none;text-decoration-style:solid;text-decoration-color:#000;text-transform:none;text-orientation:mixed;shape-padding:0;isolation:auto;mix-blend-mode:normal"/><path fill="#ffe082" d="m 67.701172,16.904297 a 2.1168782,2.1168782 0 0 0 -2.083984,2.146484 v 48.681641 a 2.1168782,2.1168782 0 1 0 4.232421,0 V 19.050781 a 2.1168782,2.1168782 0 0 0 -2.148437,-2.146484 z" color="#000" font-family="sans-serif" font-weight="400" overflow="visible" style="line-height:normal;font-variant-ligatures:normal;font-variant-position:normal;font-variant-caps:normal;font-variant-numeric:normal;font-variant-alternates:normal;font-feature-settings:normal;text-indent:0;text-align:start;text-decoration-line:none;text-decoration-style:solid;text-decoration-color:#000;text-transform:none;text-orientation:mixed;shape-padding:0;isolation:auto;mix-blend-mode:normal"/><path fill="#ffe082" d="m 25.400391,65.617188 a 2.1168766,2.1168766 0 1 0 0,4.232421 h 40.216797 v 42.333981 a 2.1168766,2.1168766 0 1 0 4.232421,0 V 67.732422 a 2.1168766,2.1168766 0 0 0 -2.117187,-2.115234 z" color="#000" font-family="sans-serif" font-weight="400" overflow="visible" style="line-height:normal;font-variant-ligatures:normal;font-variant-position:normal;font-variant-caps:normal;font-variant-numeric:normal;font-variant-alternates:normal;font-feature-settings:normal;text-indent:0;text-align:start;text-decoration-line:none;text-decoration-style:solid;text-decoration-color:#000;text-transform:none;text-orientation:mixed;shape-padding:0;isolation:auto;mix-blend-mode:normal"/><path fill="#ffe082" d="m 67.792969,65.605469 a 2.1168782,2.1168782 0 0 0 -0.935547,4.054687 l 46.566408,21.166016 a 2.1168782,2.1168782 0 1 0 1.75195,-3.853516 L 68.609375,65.806641 a 2.1168782,2.1168782 0 0 0 -0.816406,-0.201172 z" color="#000" font-family="sans-serif" font-weight="400" overflow="visible" style="line-height:normal;font-variant-ligatures:normal;font-variant-position:normal;font-variant-caps:normal;font-variant-numeric:normal;font-variant-alternates:normal;font-feature-settings:normal;text-indent:0;text-align:start;text-decoration-line:none;text-decoration-style:solid;text-decoration-color:#000;text-transform:none;text-orientation:mixed;shape-padding:0;isolation:auto;mix-blend-mode:normal"/><path fill="#ffe082" d="m 67.835938,65.589844 a 2.1168782,2.1168782 0 0 0 -2.083985,1.40039 L 53.050781,100.85742 a 2.1171422,2.1171422 0 1 0 3.964844,1.48633 L 69.714844,68.476562 a 2.1168782,2.1168782 0 0 0 -1.878906,-2.886718 z" color="#000" font-family="sans-serif" font-weight="400" overflow="visible" style="line-height:normal;font-variant-ligatures:normal;font-variant-position:normal;font-variant-caps:normal;font-variant-numeric:normal;font-variant-alternates:normal;font-feature-settings:normal;text-indent:0;text-align:start;text-decoration-line:none;text-decoration-style:solid;text-decoration-color:#000;text-transform:none;text-orientation:mixed;shape-padding:0;isolation:auto;mix-blend-mode:normal"/><path fill="#ffca28" d="M 156.45117 107.82812 A 16.001607 16.001607 0 0 0 143.24609 133.66406 L 186.16016 190.30664 A 96 95.999992 0 0 0 169.93555 213.73242 L 74.917969 176.55273 A 8.0007995 8.0007995 0 0 0 71.789062 175.96289 A 8.0007995 8.0007995 0 0 0 69.087891 191.44922 L 164.03906 228.60547 A 96 95.999992 0 0 0 160 256 A 96 95.999992 0 0 0 163.79297 282.56836 L 85.150391 312.52734 A 8.0007995 8.0007995 0 1 0 90.849609 327.47461 L 169.5293 297.50195 A 96 95.999992 0 0 0 177.83789 311.53125 L 172.68359 316.68359 A 16.001599 16.001599 0 1 0 195.31055 339.31641 L 200.43164 334.19531 A 96 95.999992 0 0 0 256 352 A 96 95.999992 0 0 0 282.0918 348.36523 L 296.50781 386.81055 A 8.0017974 8.0017974 0 0 0 311.49414 381.19336 L 297.04883 342.67383 A 96 95.999992 0 0 0 311.53711 334.1582 L 356.68555 379.31055 A 16.001599 16.001599 0 1 0 379.31055 356.68555 L 334.19531 311.57031 A 96 95.999992 0 0 0 351.59961 263.99805 L 383.99805 263.99805 A 8.0007995 8.0007995 0 1 0 383.99805 248.00195 L 351.61328 248.00195 A 96 95.999992 0 0 0 301.01953 171.26562 L 311.35352 147.15039 A 8.0007934 8.0007934 0 0 0 303.96484 135.89258 A 8.0007934 8.0007934 0 0 0 296.64844 140.8457 L 286.29883 164.99219 A 96 95.999992 0 0 0 256 160 A 96 95.999992 0 0 0 211.61719 170.92383 L 168.75 114.33789 A 16.001607 16.001607 0 0 0 156.45117 107.82812 z " color="#000" font-family="sans-serif" font-weight="400" overflow="visible" transform="scale(.26458)" style="line-height:normal;font-variant-ligatures:normal;font-variant-position:normal;font-variant-caps:normal;font-variant-numeric:normal;font-variant-alternates:normal;font-feature-settings:normal;text-indent:0;text-align:start;text-decoration-line:none;text-decoration-style:solid;text-decoration-color:#000;text-transform:none;text-orientation:mixed;shape-padding:0;isolation:auto;mix-blend-mode:normal"/><path fill="#80deea" d="M101.56836 40.1875a2.1168782 2.1168782 0 0 0-2.085938 2.146484v12.699219a2.117189 2.117189 0 1 0 4.234378 0V42.333984A2.1168782 2.1168782 0 0 0 101.56836 40.1875zM87.820312 17.970703a2.1168782 2.1168782 0 0 0-1.474609 3.634766l5.291016 5.291015a2.1171767 2.1171767 0 1 0 2.99414-2.99414l-5.292968-5.291016a2.1168782 2.1168782 0 0 0-1.517579-.640625z" color="#000" font-family="sans-serif" font-weight="400" overflow="visible" style="line-height:normal;font-variant-ligatures:normal;font-variant-position:normal;font-variant-caps:normal;font-variant-numeric:normal;font-variant-alternates:normal;font-feature-settings:normal;text-indent:0;text-align:start;text-decoration-line:none;text-decoration-style:solid;text-decoration-color:#000;text-transform:none;text-orientation:mixed;shape-padding:0;isolation:auto;mix-blend-mode:normal"/><path fill="#cfd8dc" d="M 86.783331,69.819946 A 16.90328,16.903278 0 0 1 69.880051,86.723225 16.90328,16.903278 0 0 1 52.97677,69.819946 16.90328,16.903278 0 0 1 69.880051,52.916668 16.90328,16.903278 0 0 1 86.783331,69.819946 Z" paint-order="stroke fill markers"/><path fill="#e91e63" d="m 84.666667,71.966667 a 12.7,12.7 0 0 1 -12.7,12.7 12.7,12.7 0 0 1 -12.7,-12.7 12.7,12.7 0 0 1 12.7,-12.7 12.7,12.7 0 0 1 12.7,12.7 z" paint-order="stroke fill markers"/><path fill="#f06292" d="m 80.433331,68.791669 a 4.2333325,4.2333325 0 0 1 -4.23333,4.233333 4.2333325,4.2333325 0 0 1 -4.23333,-4.233333 4.2333325,4.2333325 0 0 1 4.23333,-4.233333 4.2333325,4.2333325 0 0 1 4.23333,4.233333 z"/><path fill="#ffe082" d="M 61.259766,47.705078 A 2.1168782,2.1168782 0 0 0 60.494141,47.84375 C 54.616042,49.983204 49.983203,54.616041 47.84375,60.494141 45.704297,66.37224 46.274673,72.89912 49.402344,78.316406 a 2.1168782,2.1168782 0 1 0 3.666015,-2.117187 c -2.503372,-4.33597 -2.960454,-9.55301 -1.248047,-14.257813 1.712408,-4.704802 5.416293,-8.408685 10.121094,-10.121094 a 2.1168782,2.1168782 0 0 0 -0.68164,-4.115234 z" color="#000" font-family="sans-serif" font-weight="400" overflow="visible" style="line-height:normal;font-variant-ligatures:normal;font-variant-position:normal;font-variant-caps:normal;font-variant-numeric:normal;font-variant-alternates:normal;font-feature-settings:normal;text-indent:0;text-align:start;text-decoration-line:none;text-decoration-style:solid;text-decoration-color:#000;text-transform:none;text-orientation:mixed;shape-padding:0;isolation:auto;mix-blend-mode:normal"/><path fill="#ffe082" d="M 71.966665,48.683334 A 2.1166666,2.1166658 0 0 1 69.849998,50.8 a 2.1166666,2.1166658 0 0 1 -2.116666,-2.116666 2.1166666,2.1166658 0 0 1 2.116666,-2.116665 2.1166666,2.1166658 0 0 1 2.116667,2.116665 z" paint-order="stroke fill markers"/><path fill="#80deea" d="M33.828125 99.472656a2.1168782 2.1168782 0 0 0-.748047 4.091794l21.167969 8.4668a2.1168782 2.1168782 0 1 0 1.572265-3.92969L34.652344 99.634766a2.1168782 2.1168782 0 0 0-.824219-.16211zM33.833984 78.287109A2.1168782 2.1168782 0 0 0 31.75 80.433594v12.699218a2.1168782 2.1168782 0 1 0 4.232422 0V80.433594a2.1168782 2.1168782 0 0 0-2.148438-2.146485z" color="#000" font-family="sans-serif" font-weight="400" overflow="visible" style="line-height:normal;font-variant-ligatures:normal;font-variant-position:normal;font-variant-caps:normal;font-variant-numeric:normal;font-variant-alternates:normal;font-feature-settings:normal;text-indent:0;text-align:start;text-decoration-line:none;text-decoration-style:solid;text-decoration-color:#000;text-transform:none;text-orientation:mixed;shape-padding:0;isolation:auto;mix-blend-mode:normal"/><path fill="#e91e63" d="m 69.849996,57.150002 a 2.1166666,2.1166658 0 0 1 -2.116666,2.116665 2.1166666,2.1166658 0 0 1 -2.116667,-2.116665 2.1166666,2.1166658 0 0 1 2.116667,-2.116666 2.1166666,2.1166658 0 0 1 2.116666,2.116666 z" paint-order="stroke fill markers"/><path fill="#80deea" d="m 33.824219,99.462891 a 2.1168782,2.1168782 0 0 0 -1.455078,0.640629 l -14.816407,14.8164 a 2.1171771,2.1171771 0 1 0 2.994141,2.99414 l 14.816406,-14.8164 a 2.1168782,2.1168782 0 0 0 -1.539062,-3.634769 z" color="#000" font-family="sans-serif" font-weight="400" overflow="visible" style="line-height:normal;font-variant-ligatures:normal;font-variant-position:normal;font-variant-caps:normal;font-variant-numeric:normal;font-variant-alternates:normal;font-feature-settings:normal;text-indent:0;text-align:start;text-decoration-line:none;text-decoration-style:solid;text-decoration-color:#000;text-transform:none;text-orientation:mixed;shape-padding:0;isolation:auto;mix-blend-mode:normal"/><path fill="#ffe082" d="m 49.741665,86.783334 a 2.1166666,2.1166687 0 0 1 -2.116667,2.116669 2.1166666,2.1166687 0 0 1 -2.116666,-2.116669 2.1166666,2.1166687 0 0 1 2.116666,-2.116668 2.1166666,2.1166687 0 0 1 2.116667,2.116668 z" paint-order="stroke fill markers"/><path fill="#00bcd4" d="M 216 296 A 15.999999 15.999999 0 0 0 200 312 A 15.999999 15.999999 0 0 0 200.21094 314.58398 L 172.07617 337.59961 A 63.999994 63.999994 0 0 0 128.67188 320.00391 A 63.999994 63.999994 0 0 0 128.62109 320.00391 A 63.999992 63.999992 0 0 0 128 320 A 63.999994 63.999994 0 0 0 127.70312 320 A 63.999994 63.999994 0 0 0 127.40625 320.00391 A 63.999994 63.999994 0 0 0 127.32812 320.00391 A 63.999992 63.999992 0 0 0 127.25 320.00586 A 63.999994 63.999994 0 0 0 126.6543 320.01562 A 63.999994 63.999994 0 0 0 125.98242 320.0332 A 63.999994 63.999994 0 0 0 88.757812 333.44531 L 81.658203 326.3457 A 8.0007992 8.0007992 0 0 0 75.916016 323.91797 A 8.0007992 8.0007992 0 0 0 70.341797 337.6543 L 77.443359 344.75781 A 63.999994 63.999994 0 0 0 64 384 A 63.999994 63.999994 0 0 0 64.003906 384.59375 A 63.999992 63.999992 0 0 0 64.005859 384.83008 A 63.999994 63.999994 0 0 0 64.009766 385.03711 A 63.999992 63.999992 0 0 0 64.021484 385.64062 A 63.999992 63.999992 0 0 0 64.037109 386.14844 A 63.999994 63.999994 0 0 0 64.052734 386.56445 A 63.999992 63.999992 0 0 0 64.068359 386.93945 A 63.999994 63.999994 0 0 0 64.072266 387.00977 A 63.999992 63.999992 0 0 0 64.105469 387.6582 A 63.999992 63.999992 0 0 0 64.138672 388.20508 A 63.999994 63.999994 0 0 0 64.171875 388.6875 A 63.999992 63.999992 0 0 0 64.173828 388.71289 A 63.999994 63.999994 0 0 0 64.220703 389.29688 A 63.999992 63.999992 0 0 0 64.234375 389.45312 A 63.999994 63.999994 0 0 0 64.287109 390.04492 A 63.999994 63.999994 0 0 0 64.347656 390.66406 A 63.999992 63.999992 0 0 0 64.359375 390.76367 A 63.999994 63.999994 0 0 0 64.416016 391.26953 A 63.999992 63.999992 0 0 0 64.455078 391.60938 A 63.999994 63.999994 0 0 0 64.466797 391.71094 A 63.999992 63.999992 0 0 0 64.546875 392.3457 A 63.999992 63.999992 0 0 0 64.621094 392.88867 A 63.999994 63.999994 0 0 0 64.664062 393.19531 A 63.999992 63.999992 0 0 0 64.691406 393.38477 A 63.999994 63.999994 0 0 0 64.736328 393.67773 A 63.999992 63.999992 0 0 0 64.841797 394.3418 A 63.999992 63.999992 0 0 0 64.939453 394.92188 A 63.999994 63.999994 0 0 0 64.998047 395.25 A 63.999992 63.999992 0 0 0 65.03125 395.4375 A 63.999994 63.999994 0 0 0 65.115234 395.89453 A 63.999992 63.999992 0 0 0 65.189453 396.27539 A 63.999994 63.999994 0 0 0 65.205078 396.35742 A 63.999992 63.999992 0 0 0 65.332031 396.98633 A 63.999992 63.999992 0 0 0 65.445312 397.52344 A 63.999994 63.999994 0 0 0 65.515625 397.83984 A 63.999992 63.999992 0 0 0 65.552734 398.01172 A 63.999994 63.999994 0 0 0 65.619141 398.30078 A 63.999992 63.999992 0 0 0 65.734375 398.79883 A 63.999994 63.999994 0 0 0 65.828125 399.18555 A 63.999992 63.999992 0 0 0 65.861328 399.32227 A 63.999994 63.999994 0 0 0 65.933594 399.60938 A 63.999992 63.999992 0 0 0 66.056641 400.0918 A 63.999994 63.999994 0 0 0 66.166016 400.50391 A 63.999992 63.999992 0 0 0 66.271484 400.89844 A 63.999994 63.999994 0 0 0 66.279297 400.92188 A 63.999992 63.999992 0 0 0 66.40625 401.38086 A 63.999994 63.999994 0 0 0 66.541016 401.85156 A 63.999992 63.999992 0 0 0 66.591797 402.02734 A 63.999994 63.999994 0 0 0 66.697266 402.38281 A 63.999992 63.999992 0 0 0 66.779297 402.65234 A 63.999994 63.999994 0 0 0 66.951172 403.20898 A 63.999994 63.999994 0 0 0 67.154297 403.8418 A 63.999992 63.999992 0 0 0 67.160156 403.85938 A 63.999994 63.999994 0 0 0 67.324219 404.35547 A 63.999992 63.999992 0 0 0 67.412109 404.61719 A 63.999994 63.999994 0 0 0 67.507812 404.89648 A 63.999992 63.999992 0 0 0 67.681641 405.39062 A 63.999994 63.999994 0 0 0 67.710938 405.47266 A 63.999992 63.999992 0 0 0 67.828125 405.80078 A 63.999994 63.999994 0 0 0 67.980469 406.21875 A 63.999992 63.999992 0 0 0 68.125 406.60156 A 63.999994 63.999994 0 0 0 68.148438 406.66602 A 63.999992 63.999992 0 0 0 68.283203 407.01758 A 63.999994 63.999994 0 0 0 68.482422 407.5293 A 63.999992 63.999992 0 0 0 68.574219 407.75781 A 63.999994 63.999994 0 0 0 68.714844 408.10938 A 63.999992 63.999992 0 0 0 68.873047 408.49023 A 63.999994 63.999994 0 0 0 68.908203 408.57617 A 63.999992 63.999992 0 0 0 69.148438 409.14648 A 63.999994 63.999994 0 0 0 69.166016 409.18945 A 63.999992 63.999992 0 0 0 69.384766 409.69336 A 63.999994 63.999994 0 0 0 69.486328 409.92188 A 63.999992 63.999992 0 0 0 69.638672 410.26758 A 63.999994 63.999994 0 0 0 69.742188 410.49414 A 63.999992 63.999992 0 0 0 69.964844 410.97656 A 63.999994 63.999994 0 0 0 70.007812 411.07031 A 63.999992 63.999992 0 0 0 70.203125 411.48633 A 63.999994 63.999994 0 0 0 70.322266 411.73633 A 63.999992 63.999992 0 0 0 70.486328 412.07422 A 63.999994 63.999994 0 0 0 70.724609 412.55469 A 63.999994 63.999994 0 0 0 71.027344 413.15625 A 63.999994 63.999994 0 0 0 71.25 413.58789 A 63.999992 63.999992 0 0 0 71.423828 413.91992 A 63.999994 63.999994 0 0 0 71.558594 414.17383 A 63.999992 63.999992 0 0 0 71.708984 414.45312 A 63.999994 63.999994 0 0 0 71.902344 414.80469 A 63.999992 63.999992 0 0 0 72.070312 415.10938 A 63.999994 63.999994 0 0 0 72.167969 415.28516 A 63.999992 63.999992 0 0 0 72.386719 415.67188 A 63.999994 63.999994 0 0 0 72.513672 415.89453 A 63.999992 63.999992 0 0 0 72.761719 416.32227 A 63.999994 63.999994 0 0 0 72.896484 416.55078 A 63.999992 63.999992 0 0 0 72.998047 416.7207 A 63.999994 63.999994 0 0 0 73.263672 417.16406 A 63.999992 63.999992 0 0 0 73.386719 417.36719 A 63.999994 63.999994 0 0 0 73.478516 417.51758 A 63.999992 63.999992 0 0 0 73.677734 417.83789 A 63.999994 63.999994 0 0 0 73.927734 418.23633 A 63.999992 63.999992 0 0 0 74.171875 418.61914 A 63.999994 63.999994 0 0 0 74.259766 418.75586 A 63.999992 63.999992 0 0 0 74.443359 419.03711 A 63.999994 63.999994 0 0 0 74.771484 419.5332 A 63.999994 63.999994 0 0 0 75.019531 419.90234 A 63.999992 63.999992 0 0 0 75.25 420.24219 A 63.999994 63.999994 0 0 0 75.445312 420.52148 A 63.999992 63.999992 0 0 0 75.601562 420.74805 A 63.999994 63.999994 0 0 0 75.814453 421.04883 A 63.999992 63.999992 0 0 0 75.970703 421.26758 A 63.999994 63.999994 0 0 0 76.3125 421.74023 A 63.999994 63.999994 0 0 0 76.611328 422.14648 A 63.999992 63.999992 0 0 0 76.8125 422.41602 A 63.999994 63.999994 0 0 0 77.009766 422.67578 A 63.999992 63.999992 0 0 0 77.226562 422.95898 A 63.999994 63.999994 0 0 0 77.369141 423.14453 A 63.999992 63.999992 0 0 0 77.607422 423.45312 A 63.999994 63.999994 0 0 0 77.892578 423.81641 A 63.999992 63.999992 0 0 0 77.982422 423.92773 A 63.999994 63.999994 0 0 0 78.341797 424.375 A 63.999992 63.999992 0 0 0 78.380859 424.41992 A 63.999994 63.999994 0 0 0 78.792969 424.92188 A 63.999994 63.999994 0 0 0 79.207031 425.41406 A 63.999992 63.999992 0 0 0 79.253906 425.4707 A 63.999994 63.999994 0 0 0 79.572266 425.83984 A 63.999992 63.999992 0 0 0 79.732422 426.02539 A 63.999994 63.999994 0 0 0 80.046875 426.38477 A 63.999992 63.999992 0 0 0 80.146484 426.49805 A 63.999994 63.999994 0 0 0 80.470703 426.85938 A 63.999992 63.999992 0 0 0 80.685547 427.0957 A 63.999994 63.999994 0 0 0 80.802734 427.22461 A 63.999992 63.999992 0 0 0 81.212891 427.66797 A 63.999992 63.999992 0 0 0 81.5625 428.04102 A 63.999994 63.999994 0 0 0 81.785156 428.27344 A 63.999992 63.999992 0 0 0 82.048828 428.54688 A 63.999994 63.999994 0 0 0 82.140625 428.64258 A 63.999992 63.999992 0 0 0 82.404297 428.91016 A 63.999994 63.999994 0 0 0 82.746094 429.25391 A 63.999992 63.999992 0 0 0 83.089844 429.5957 A 63.999992 63.999992 0 0 0 83.453125 429.95117 A 63.999994 63.999994 0 0 0 83.726562 430.21484 A 63.999992 63.999992 0 0 0 83.958984 430.4375 A 63.999994 63.999994 0 0 0 84.056641 430.5293 A 63.999992 63.999992 0 0 0 84.332031 430.78711 A 63.999994 63.999994 0 0 0 84.775391 431.19727 A 63.999992 63.999992 0 0 0 84.904297 431.31445 A 63.999994 63.999994 0 0 0 85.140625 431.5293 A 63.999992 63.999992 0 0 0 85.501953 431.85352 A 63.999994 63.999994 0 0 0 85.615234 431.95312 A 63.999992 63.999992 0 0 0 85.974609 432.26758 A 63.999994 63.999994 0 0 0 86.160156 432.42773 A 63.999992 63.999992 0 0 0 86.529297 432.74609 A 63.999994 63.999994 0 0 0 86.585938 432.79297 A 63.999992 63.999992 0 0 0 87.078125 433.20703 A 63.999992 63.999992 0 0 0 87.580078 433.61914 A 63.999994 63.999994 0 0 0 87.625 433.6582 A 63.999992 63.999992 0 0 0 88.072266 434.01758 A 63.999994 63.999994 0 0 0 88.183594 434.10742 A 63.999992 63.999992 0 0 0 88.546875 434.39258 A 63.999994 63.999994 0 0 0 88.855469 434.63086 A 63.999992 63.999992 0 0 0 89.041016 434.77344 A 63.999994 63.999994 0 0 0 89.324219 434.99023 A 63.999992 63.999992 0 0 0 89.583984 435.1875 A 63.999994 63.999994 0 0 0 89.853516 435.38867 A 63.999992 63.999992 0 0 0 90.021484 435.51367 A 63.999994 63.999994 0 0 0 90.259766 435.6875 A 63.999992 63.999992 0 0 0 90.732422 436.0293 A 63.999994 63.999994 0 0 0 90.951172 436.18555 A 63.999992 63.999992 0 0 0 91.251953 436.39844 A 63.999994 63.999994 0 0 0 91.478516 436.55469 A 63.999992 63.999992 0 0 0 91.757812 436.75 A 63.999994 63.999994 0 0 0 92.097656 436.98047 A 63.999992 63.999992 0 0 0 92.220703 437.06445 A 63.999994 63.999994 0 0 0 92.466797 437.22852 A 63.999992 63.999992 0 0 0 92.962891 437.55664 A 63.999994 63.999994 0 0 0 93.244141 437.74023 A 63.999992 63.999992 0 0 0 93.380859 437.82812 A 63.999994 63.999994 0 0 0 93.763672 438.07227 A 63.999992 63.999992 0 0 0 94.162109 438.32227 A 63.999992 63.999992 0 0 0 94.632812 438.61328 A 63.999994 63.999994 0 0 0 94.835938 438.73633 A 63.999992 63.999992 0 0 0 95.279297 439.00195 A 63.999994 63.999994 0 0 0 95.449219 439.10352 A 63.999992 63.999992 0 0 0 95.677734 439.23828 A 63.999994 63.999994 0 0 0 96.105469 439.48633 A 63.999992 63.999992 0 0 0 96.328125 439.61328 A 63.999994 63.999994 0 0 0 96.714844 439.83203 A 63.999992 63.999992 0 0 0 96.890625 439.92969 A 63.999994 63.999994 0 0 0 97.195312 440.09766 A 63.999992 63.999992 0 0 0 97.546875 440.29102 A 63.999994 63.999994 0 0 0 97.826172 440.44141 A 63.999992 63.999992 0 0 0 98.080078 440.57617 A 63.999994 63.999994 0 0 0 98.412109 440.75 A 63.999992 63.999992 0 0 0 98.580078 440.83789 A 63.999994 63.999994 0 0 0 98.84375 440.97266 A 63.999992 63.999992 0 0 0 99.445312 441.27539 A 63.999992 63.999992 0 0 0 99.925781 441.51367 A 63.999994 63.999994 0 0 0 100.26367 441.67773 A 63.999992 63.999992 0 0 0 100.51367 441.79688 A 63.999994 63.999994 0 0 0 100.92969 441.99219 A 63.999992 63.999992 0 0 0 101.02344 442.03516 A 63.999994 63.999994 0 0 0 101.50586 442.25781 A 63.999992 63.999992 0 0 0 101.73242 442.36133 A 63.999994 63.999994 0 0 0 102.07812 442.51367 A 63.999992 63.999992 0 0 0 102.30664 442.61523 A 63.999994 63.999994 0 0 0 102.81055 442.83398 A 63.999992 63.999992 0 0 0 102.85352 442.85156 A 63.999994 63.999994 0 0 0 103.42383 443.0918 A 63.999992 63.999992 0 0 0 103.50977 443.12695 A 63.999994 63.999994 0 0 0 103.89062 443.28516 A 63.999992 63.999992 0 0 0 104.24219 443.42578 A 63.999994 63.999994 0 0 0 104.4707 443.51758 A 63.999992 63.999992 0 0 0 104.98242 443.7168 A 63.999992 63.999992 0 0 0 105.39844 443.875 A 63.999994 63.999994 0 0 0 105.78125 444.01953 A 63.999992 63.999992 0 0 0 106.19922 444.17188 A 63.999994 63.999994 0 0 0 106.52734 444.28906 A 63.999992 63.999992 0 0 0 106.60938 444.31836 A 63.999994 63.999994 0 0 0 107.10352 444.49219 A 63.999992 63.999992 0 0 0 107.38281 444.58789 A 63.999994 63.999994 0 0 0 107.64453 444.67578 A 63.999992 63.999992 0 0 0 108.14062 444.83984 A 63.999994 63.999994 0 0 0 108.1582 444.8457 A 63.999992 63.999992 0 0 0 108.79102 445.04883 A 63.999992 63.999992 0 0 0 109.34766 445.2207 A 63.999994 63.999994 0 0 0 109.61719 445.30273 A 63.999992 63.999992 0 0 0 109.97266 445.4082 A 63.999994 63.999994 0 0 0 110.14844 445.45898 A 63.999992 63.999992 0 0 0 110.61914 445.59375 A 63.999994 63.999994 0 0 0 111.07812 445.7207 A 63.999992 63.999992 0 0 0 111.10156 445.72852 A 63.999994 63.999994 0 0 0 111.49609 445.83398 A 63.999992 63.999992 0 0 0 111.9082 445.94336 A 63.999994 63.999994 0 0 0 112.02539 445.97461 A 63.999992 63.999992 0 0 0 112.39062 446.06641 A 63.999994 63.999994 0 0 0 112.81445 446.17188 A 63.999992 63.999992 0 0 0 113.20117 446.26562 A 63.999994 63.999994 0 0 0 113.69922 446.38086 A 63.999994 63.999994 0 0 0 114.16016 446.48438 A 63.999992 63.999992 0 0 0 114.47656 446.55469 A 63.999994 63.999994 0 0 0 115.01367 446.66797 A 63.999994 63.999994 0 0 0 115.64258 446.79492 A 63.999992 63.999992 0 0 0 115.72461 446.81055 A 63.999994 63.999994 0 0 0 116.10547 446.88477 A 63.999992 63.999992 0 0 0 116.5625 446.96875 A 63.999994 63.999994 0 0 0 116.75 447.00195 A 63.999992 63.999992 0 0 0 117.07812 447.06055 A 63.999994 63.999994 0 0 0 117.6582 447.1582 A 63.999994 63.999994 0 0 0 118.32227 447.26367 A 63.999994 63.999994 0 0 0 118.80469 447.33594 A 63.999992 63.999992 0 0 0 119.11133 447.37891 A 63.999994 63.999994 0 0 0 119.6543 447.45312 A 63.999994 63.999994 0 0 0 120.28906 447.5332 A 63.999992 63.999992 0 0 0 120.39062 447.54492 A 63.999994 63.999994 0 0 0 120.73047 447.58398 A 63.999992 63.999992 0 0 0 121.23633 447.64062 A 63.999994 63.999994 0 0 0 121.33594 447.65234 A 63.999992 63.999992 0 0 0 121.95508 447.71289 A 63.999992 63.999992 0 0 0 122.54688 447.76562 A 63.999994 63.999994 0 0 0 122.70312 447.7793 A 63.999992 63.999992 0 0 0 123.29492 447.82617 A 63.999992 63.999992 0 0 0 123.80469 447.86133 A 63.999994 63.999994 0 0 0 124.3418 447.89453 A 63.999994 63.999994 0 0 0 124.99023 447.92773 A 63.999992 63.999992 0 0 0 125.06055 447.93164 A 63.999994 63.999994 0 0 0 125.43555 447.94727 A 63.999992 63.999992 0 0 0 125.85156 447.96289 A 63.999994 63.999994 0 0 0 126.35938 447.97852 A 63.999994 63.999994 0 0 0 126.96289 447.99023 A 63.999992 63.999992 0 0 0 127.16992 447.99414 A 63.999994 63.999994 0 0 0 127.32812 447.99609 A 63.999992 63.999992 0 0 0 127.40625 447.99609 A 63.999992 63.999992 0 0 0 128 448 A 63.999994 63.999994 0 0 0 128.59375 447.99609 A 63.999992 63.999992 0 0 0 128.67188 447.99609 A 63.999994 63.999994 0 0 0 128.75 447.99414 A 63.999994 63.999994 0 0 0 129.3457 447.98438 A 63.999994 63.999994 0 0 0 130.01758 447.9668 A 63.999994 63.999994 0 0 0 163.24805 437.41992 L 169.92383 445.20898 A 8.0019804 8.0019804 0 0 0 182.07422 434.79297 L 175.39844 427.00391 A 63.999994 63.999994 0 0 0 192 384.08789 A 63.999994 63.999994 0 0 0 192 384.0293 A 63.999992 63.999992 0 0 0 192 384 A 63.999994 63.999994 0 0 0 182.20898 349.98242 L 210.3418 326.96484 A 15.999999 15.999999 0 0 0 216 328 A 15.999999 15.999999 0 0 0 232 312 A 15.999999 15.999999 0 0 0 216 296 z " color="#000" font-family="sans-serif" font-weight="400" overflow="visible" transform="scale(.26458)" style="line-height:normal;font-variant-ligatures:normal;font-variant-position:normal;font-variant-caps:normal;font-variant-numeric:normal;font-variant-alternates:normal;font-feature-settings:normal;text-indent:0;text-align:start;text-decoration-line:none;text-decoration-style:solid;text-decoration-color:#000;text-transform:none;text-orientation:mixed;shape-padding:0;isolation:auto;mix-blend-mode:normal"/><path fill="#80deea" d="M25.399999 99.483337a2.1166666 2.1166687 0 0 1-2.116666 2.116673 2.1166666 2.1166687 0 0 1-2.116667-2.116673 2.1166666 2.1166687 0 0 1 2.116667-2.116668 2.1166666 2.1166687 0 0 1 2.116666 2.116668zM42.333334 95.25A2.1166666 2.1166687 0 0 1 40.216667 97.366669 2.1166666 2.1166687 0 0 1 38.100001 95.25 2.1166666 2.1166687 0 0 1 40.216667 93.133331 2.1166666 2.1166687 0 0 1 42.333334 95.25zM33.866665 112.18333a2.1166666 2.1166687 0 0 1-2.116667 2.11667 2.1166666 2.1166687 0 0 1-2.116666-2.11667 2.1166666 2.1166687 0 0 1 2.116666-2.11667 2.1166666 2.1166687 0 0 1 2.116667 2.11667z" paint-order="stroke fill markers"/><path fill="#ffe082" d="m 99.483328,96.308334 a 2.1166666,2.1166687 0 0 1 -2.116667,2.116669 2.1166666,2.1166687 0 0 1 -2.116666,-2.116669 2.1166666,2.1166687 0 0 1 2.116666,-2.116668 2.1166666,2.1166687 0 0 1 2.116667,2.116668 z" paint-order="stroke fill markers"/><path fill="#00bcd4" d="M 439.8418 63.919922 A 8.0007995 8.0007995 0 0 0 434.34375 66.341797 L 423.18945 77.5 A 63.999995 63.999995 0 0 0 384 64 A 63.999995 63.999995 0 0 0 326.45508 100.17383 L 307.13867 96.310547 A 16.001599 16.001599 0 0 0 303.96484 95.957031 A 16.001599 16.001599 0 0 0 300.86328 127.69141 L 320.125 131.54297 A 63.999995 63.999995 0 0 0 333.4668 167.22266 L 324.12891 176.56055 A 15.999996 15.999999 0 0 0 320 176 A 15.999996 15.999999 0 0 0 304 192 A 15.999996 15.999999 0 0 0 320 208 A 15.999996 15.999999 0 0 0 336 192 A 15.999996 15.999999 0 0 0 335.44727 187.85938 L 344.80859 178.5 A 63.999995 63.999995 0 0 0 384 192 A 63.999995 63.999995 0 0 0 423.22266 178.53516 L 434.34375 189.65625 A 8.0007995 8.0007995 0 1 0 445.66016 178.3457 L 434.50195 167.1875 A 63.999995 63.999995 0 0 0 448 128 A 63.999995 63.999995 0 0 0 434.53516 88.779297 L 445.66016 77.658203 A 8.0007995 8.0007995 0 0 0 439.8418 63.919922 z " color="#000" font-family="sans-serif" font-weight="400" overflow="visible" transform="scale(.26458)" style="line-height:normal;font-variant-ligatures:normal;font-variant-position:normal;font-variant-caps:normal;font-variant-numeric:normal;font-variant-alternates:normal;font-feature-settings:normal;text-indent:0;text-align:start;text-decoration-line:none;text-decoration-style:solid;text-decoration-color:#000;text-transform:none;text-orientation:mixed;shape-padding:0;isolation:auto;mix-blend-mode:normal"/><path fill="#80deea" d="M86.78333 49.741667a2.1166666 2.1166687 0 0 1-2.116667 2.116669 2.1166666 2.1166687 0 0 1-2.116666-2.116669 2.1166666 2.1166687 0 0 1 2.116666-2.116668 2.1166666 2.1166687 0 0 1 2.116667 2.116668zM81.491664 29.633334a2.1166666 2.1166687 0 0 1-2.116667 2.116669 2.1166666 2.1166687 0 0 1-2.116666-2.116669 2.1166666 2.1166687 0 0 1 2.116666-2.116669 2.1166666 2.1166687 0 0 1 2.116667 2.116669zM97.366667 31.750004A2.1166666 2.1166687 0 0 1 95.25 33.866673 2.1166666 2.1166687 0 0 1 93.133333 31.750004 2.1166666 2.1166687 0 0 1 95.25 29.633335a2.1166666 2.1166687 0 0 1 2.116667 2.116669zM112.18334 25.400005a2.1166666 2.1166687 0 0 1-2.11667 2.116669 2.1166666 2.1166687 0 0 1-2.11666-2.116669 2.1166666 2.1166687 0 0 1 2.11666-2.116668 2.1166666 2.1166687 0 0 1 2.11667 2.116668zM110.06666 40.216671a2.1166666 2.1166687 0 0 1-2.11666 2.116669 2.1166666 2.1166687 0 0 1-2.11667-2.116669 2.1166666 2.1166687 0 0 1 2.11667-2.116669 2.1166666 2.1166687 0 0 1 2.11666 2.116669z" paint-order="stroke fill markers"/><path fill="#ffe082" d="m 44.449999,32.808332 a 2.1166666,2.1166687 0 0 1 -2.116667,2.116669 2.1166666,2.1166687 0 0 1 -2.116667,-2.116669 2.1166666,2.1166687 0 0 1 2.116667,-2.116668 2.1166666,2.1166687 0 0 1 2.116667,2.116668 z" paint-order="stroke fill markers"/><path fill="#80deea" d="m 60.324998,82.549997 a 2.1166666,2.1166687 0 0 1 -2.116667,2.116669 2.1166666,2.1166687 0 0 1 -2.116666,-2.116669 2.1166666,2.1166687 0 0 1 2.116666,-2.116669 2.1166666,2.1166687 0 0 1 2.116667,2.116669 z" paint-order="stroke fill markers"/></svg>