<svg id="SvgjsSvg1001" width="288" height="288" xmlns="http://www.w3.org/2000/svg" version="1.1" xmlns:xlink="http://www.w3.org/1999/xlink" xmlns:svgjs="http://svgjs.com/svgjs"><defs id="SvgjsDefs1002"></defs><g id="SvgjsG1008" transform="matrix(1,0,0,1,0,0)"><svg xmlns="http://www.w3.org/2000/svg" enable-background="new 0 0 132 132" viewBox="0 0 132 132" width="288" height="288"><path fill="#fbe000" d="M100.9,51.9H64.1c0.5-1,2.7-2.2,3.3-3l30.8,0.4C98.8,50.2,100.4,50.9,100.9,51.9z" class="colorFBE000 svgShape"></path><path fill="#f8a3bc" d="M107.5,64.5H58.4c0.1-1.3,0.2-2.6,0.3-3.9h48.4C107.3,61.9,107.4,63.2,107.5,64.5z" class="colorF8A3BC svgShape"></path><path fill="#f9986e" d="M106.1,70.4c-0.3,1.1-1.8,2.5-2.2,3.5H62c-0.4-1-1.7-2.1-2-3.2L106.1,70.4z" class="colorF9986E svgShape"></path><path fill="#6fcccf" d="M118.1,11.4c-0.3,1.7-2.1,3.9-2.3,5.5H49.9c-2.1-3.1-2.7-2.6-3.1-4.3L118.1,11.4z" class="color6FCCCF svgShape"></path><path fill="#ffcade" d="M110.1,25.6c-0.3,0.8-3.1,3-3.5,3.8H65.1c0-0.1-9.3-4.2-10-5.8L110.1,25.6z" class="colorFFCADE svgShape"></path><path fill="#9ee5e3" d="M106.6,107.6H59.4c0.2-1.1,0.4-2.3,0.6-3.4H106C106.3,105.3,106.4,106.5,106.6,107.6z" class="color9EE5E3 svgShape"></path><path fill="#ffcade" d="M95.4,114.3c0,1-0.3,1.8-0.7,1.8H58.5c-0.1-1.2-0.1-2.3-0.2-3.5h36.3C95,112.6,95.4,113.4,95.4,114.3z" class="colorFFCADE svgShape"></path><path fill="#c3c3e2" d="M97,129.3c-0.7,0-1.4-0.3-1.8-0.9c-0.9-1-0.7-2.5,0.3-3.4c3.7-3.1,6.4-7.2,7.5-11.3c1-3.8,0.7-7.7-0.8-11
			c-0.3-0.6-0.6-1.2-1-1.8c-2.8-4.4-8-7-12.5-9.3l-7.5-3.9c-2.1-1.1-4.2-2.2-6.3-3.2c-4.3-2.2-8.7-4.5-12.4-8
			c-1.2-1.2-2.3-2.5-3.2-3.9c-2.2-3.4-3.2-7-3-10.5c0-0.5,0.1-0.9,0.2-1.3c0.2-1.3,1.5-2.2,2.8-1.9c1.3,0.2,2.2,1.5,1.9,2.8
			C61,61.8,61,62.1,61,62.4c-0.2,3.1,1.1,5.8,2.2,7.5c0.7,1.1,1.6,2.1,2.6,3.1c3.1,3,7.3,5.2,11.3,7.2c2.1,1.1,4.2,2.2,6.3,3.2
			l7.5,3.9c4.8,2.5,10.8,5.6,14.4,11c0.5,0.8,0.9,1.6,1.3,2.4c2,4.4,2.3,9.4,1.1,14.2c-1.3,5.1-4.6,10-9.1,13.8
			C98.1,129.1,97.5,129.3,97,129.3z" class="colorC3C3E2 svgShape"></path><path fill="#c3c3e2" d="M58.7,63.7c-0.1,0-0.2,0-0.3,0c-1.3-0.1-2.3-1.3-2.1-2.6c0.2-1.7,0.8-3.5,1.7-5.3
			c3.6-7.3,11.2-11,18.2-13.7c0.9-0.4,1.8-0.7,2.8-1.1l0.5-0.2c1.1-0.4,2.2-0.8,3.3-1.2c6.2-2.4,12.8-5.2,18.5-9.3
			c4.3-3.1,7.8-6.7,10.2-10.7c1.9-3.1,3.1-6.4,3.6-9.7c0.2-1.3,1.4-2.2,2.7-2c1.3,0.2,2.2,1.4,2,2.7c-0.6,3.9-2,7.8-4.2,11.5
			c-2.8,4.6-6.7,8.7-11.5,12.2c-6.2,4.5-13.4,7.5-19.6,9.9c-1.1,0.4-2.2,0.8-3.3,1.3l-0.5,0.2c-0.9,0.3-1.8,0.7-2.7,1
			c-6.1,2.4-12.8,5.6-15.7,11.4c-0.7,1.4-1.1,2.6-1.2,3.7C60.9,62.8,59.9,63.7,58.7,63.7z" class="colorC3C3E2 svgShape"></path><path fill="#c3c3e2" d="M67.5,129.3c-0.5,0-1.1-0.2-1.5-0.6c-5.6-4.7-9.1-11-9.7-17.4c-0.3-3.7,0.2-7.4,1.7-10.6
			c0.4-0.8,0.8-1.6,1.3-2.4c3.5-5.5,9.5-8.6,14.4-11l13.8-7.1c4-2,8.1-4.2,11.3-7.2c0.6-0.6,1.2-1.3,1.7-1.9
			c2.7-3.4,3.7-7.3,2.7-10.6c-0.4-1.3-1.1-2.7-1.9-3.6c-1-1.2-2.1-2.4-3.4-3.5c-4.6-4.1-10.1-7-14.3-9l-0.9-0.4
			c-1.7-0.8-3.5-1.6-5.3-2.4c-2-0.9-4.1-1.9-6.2-2.9l-0.3-0.2C67.5,36.9,64,35.2,61,33c-0.3-0.2-0.5-0.4-0.8-0.6
			c-0.4-0.3-1-0.6-1.2-0.8c-0.6-0.5-1.3-0.9-1.9-1.4c-1.3-1-2.5-2-3.6-3.1c-2.1-1.9-4.1-4-5.9-6.2c-3.8-4.5-6.9-9.5-9.3-14.9
			c-0.5-1.2,0-2.6,1.2-3.2c1.2-0.5,2.6,0,3.2,1.2c2.2,4.9,5.1,9.5,8.6,13.7c1.7,2,3.5,3.9,5.5,5.7c1.1,1,2.2,1.9,3.4,2.8
			c0.6,0.5,1.2,0.9,1.7,1.3c0.2,0.1,0.6,0.4,1,0.7c0.4,0.2,0.7,0.5,1.1,0.8c2.7,2,5.9,3.5,9,5l0.3,0.2c2,1,4.1,1.9,6.1,2.8
			c1.8,0.8,3.6,1.6,5.3,2.5l0.9,0.4c4.6,2.2,10.4,5.3,15.4,9.8c1.4,1.3,2.7,2.6,3.9,4c1.2,1.5,2.2,3.4,2.8,5.3
			c1.4,4.8,0.2,10.3-3.5,14.9c-0.6,0.8-1.4,1.6-2.2,2.4c-3.7,3.5-8.1,5.8-12.4,8l-13.8,7.1c-4.5,2.3-9.7,5-12.5,9.4
			c-0.4,0.6-0.7,1.2-1,1.8c-1.1,2.5-1.6,5.3-1.3,8.2c0.5,5.1,3.4,10.3,8,14.2c1,0.9,1.1,2.4,0.3,3.4C68.8,129,68.2,129.3,67.5,129.3
			z" class="colorC3C3E2 svgShape"></path><path fill="#ffffff" d="M59.4,60.1c-1-2.3-5-1.7-6.7,1.2c-1,1.7-3.9,10.3-4.7,11.3c-2.2,2.4-3.6,0.5-6.3,2.4
				c-1.8,1.3-3.7,2.4-5.1,4.1c-1.3,1.5-2.2,3.3-3,5.1c-2,4.2-3.4,9.4-7.5,11.7c-8,4.6-2.6,8.2,0.9,6.3c4.9-2.7,9.1-6.5,10.7-11.5
				c-1.1,3,0.1,6.2,0.1,9.4c0.1,5.4-3.2,10.2-7.1,13.9c-1,1-2.4,2.9-2.7,5.2c-0.4,3.5,3.7,5.9,6.5,3.6c0.6-0.4,1.1-0.9,1.6-1.4
				c4.1-4.2,7.3-12.2,10.2-17.3c1.1,2,1.1,3.9,1.2,6.2c0.1,2.9,0.3,5.8,0.4,8.7c0.1,2.5,0.3,5.3,1.9,7.3c0.8,0.9,1.9,1.7,3.1,1.5
				c1.2-0.1,2.1-1,2.7-2c1-1.8,1.2-4,1-6.1s-1.2-11.4-1.5-14c-0.2-2.1-0.7-4.1-1.1-6.1c-0.8-4.2-1.2-8.4-1.2-12.7
				c0-2.7,0.2-5.5,1.2-8c0.4-1,1-2,1.5-3C57.9,70.4,61.7,65.2,59.4,60.1z" class="colorFFF svgShape"></path><circle cx="40.2" cy="71.1" r="8.2" fill="#ffffff" class="colorFFF svgShape"></circle><path fill="#767fad" d="M118,7c-1.7-0.3-3.3,1-3.6,2.7c-0.1,0.4-0.1,0.9-0.2,1.3l-66.3,1.1c-1.8-2.7-3.3-5.5-4.6-8.4
				c-0.5-1.1-1.6-1.9-2.9-1.9c-0.5,0-0.9,0.1-1.3,0.3c-0.8,0.3-1.4,1-1.7,1.8c-0.3,0.8-0.3,1.6,0.1,2.4c2.4,5.4,5.6,10.4,9.4,15
				c8.8,10.5,17.4,15,28.6,20.1c-8.4,3.3-16.5,7.9-19.3,16.5c-4.3,0.7-5.1,5.1-7.3,10.8c-1-3.8-4.5-6.6-8.7-6.6
				c-9.1,0-12.4,12.2-4.5,16.8c-3.9,4.8-4.9,13.3-10,16.3c-4.5,2.6-4.7,4.9-4.4,5.9c0.6,2.1,3.6,3,6.1,1.6c4.1-2.2,7.2-5,9.2-8.1
				c0.3,3.5,2.7,10.3-6.3,18.6c-1.2,1.1-2.7,3.2-2.9,5.7c-0.5,4.3,4.5,6.9,7.7,4.3c4.7-3.7,7.9-11.4,11.2-17.6
				c1.6,5.2-1.5,22.7,6.3,22.7c1.6,0,2.8-1.1,3.6-2.4c1.6-2.8,1.1-5.8,0.8-8.7c1.7,4.4,4.6,8.6,8.6,12c3.2,2.7,7.2-2.1,4-4.8
				c-2.7-2.3-4.8-5-6.1-7.9h31.3c1.6,0,1.6-4.5,0-4.5H61.9c-0.2-1.3-0.3-2.6-0.2-4h41c0.4,6.4-2.9,12.3-7.8,16.4
				c-2.2,1.9-0.9,5.6,2,5.6c0.7,0,1.5-0.3,2-0.7c9.8-8.2,12.3-19.8,8.2-28.9c-3.4-7.6-10.9-11.2-18.1-14.9
				c5.5-2.8,11.7-5.9,15.7-11.1c5.7-7.3,5.4-15.6,0.7-21.2c-3.9-4.7-9-8.3-14.3-11.2c14.1-6.2,27.2-16.1,29.5-31.5
				C120.9,8.9,119.7,7.3,118,7z M114,12c-0.4,1.5-0.9,3-1.6,4.5H51.1c-0.9-1.1-1.7-2.2-2.5-3.3L114,12z M83.8,38.3
				c-4.1-1.9-13.1-5.8-17.3-8.4h33.9C95.2,33.6,89.4,36.1,83.8,38.3z M65.2,29c-0.1-0.1-0.8-0.4-0.8-0.4c-0.3-0.3-2.5-1.5-5.7-4.3
				l46.7,1.7c-1.1,1.1-2.3,2.1-3.6,3H65.2z M57.5,23.2c-0.6-0.5-3.3-3-5.6-5.8h60c-1.1,2.1-3,5-5.5,7.5L57.5,23.2z M77.4,42.4
				c1.4,0.6,2.8,1.3,4.2,1.9c-8.2,3.2-18.7,6.8-21,15.8h-0.4c-0.5-1.4-1.7-2-2.4-2C61,49.5,69,45.6,77.4,42.4z M90,48.7l-14.9-0.2
				c2.6-1.1,5.3-2.1,8.4-3.3C85.5,46.2,87.8,47.3,90,48.7z M94.2,51.4H69.5c1.1-0.7,2.3-1.4,3.5-2l18.7,0.3
				C92.5,50.2,93.4,50.8,94.2,51.4z M102.2,60.1h-40c1-3.1,3.2-5.7,5.9-7.7h27.5C98.1,54.5,101.1,57.1,102.2,60.1z M102.7,64h-41
				c-0.1-0.8-0.1-1.7,0.2-2.9h40.6C102.7,62,102.8,63,102.7,64z M97.2,73.3h-30c-0.7-0.6-1.6-1.4-2.2-2.2l34.7-0.2
				C98.9,71.8,98.1,72.6,97.2,73.3z M82.2,82c-5.9-3-10.5-5.3-13.8-7.7H96C92.7,76.8,88.8,78.7,82.2,82z M55.7,105.7
				c-0.4-4.3-5-19.4-0.2-28.8c0.9-1.7,2.3-4.4,2.5-4.8c4.1,6.7,10.3,9.8,17.3,13.4C65.7,90.5,57.5,94.7,55.7,105.7z M58.8,70.5
				c0.7-1.5,1.4-3.1,1.7-4.6c2.2,8.7,12.1,12.9,20,17L77,84.7C69.9,81.1,62.7,77.8,58.8,70.5z M64.2,70.1c-1.1-1.4-2-3.3-2.4-5.1
				h40.7c-0.3,1.6-1,3.3-2.2,4.9L64.2,70.1z M40.2,63.6c5.4,0,9.2,5.7,6.8,10.7c-1.8,3.9-6.6,5.4-10.2,3.5
				C29.8,74.2,32.4,63.6,40.2,63.6z M50.2,125.7c-1.4-1.7-1.6-4.1-1.7-6.8c-0.2-4.1-0.1-15.6-2.3-15.6c-1.5,0-6.1,14.1-12.2,18.9
				c-2.2,1.7-5.6,0-5.3-3c0.2-2,1.5-3.8,2.5-4.8c4.8-4.4,7.4-9.6,7.4-14.4c0-1.1-0.2-2.2-0.3-3.3c-0.6-4.9,0.1-5.5,0.1-5.8
				c0.3-0.9-1.1-1.4-1.4-0.5c-1.6,5.8-9.5,11.6-12.1,11.6c-2.6,0-3.8-2.3,1.6-5.4c6-3.5,6.5-12.3,10.7-17c5.4,2,11.4-1.7,12-7.5
				c3.2-6.6,3.2-11.2,6.6-12.4c2.8-1.4,5.8,2.3,1.4,10.8c-3.9,7.7-5.3,8.7-5.3,16.2c-0.1,9.6,1.9,14.9,2.3,18.9
				c0.3,3.1,1.2,12,1.5,14C56.3,125.9,52.7,128.7,50.2,125.7z M94.6,113.1c0.4,0.5,0.4,2,0,2.5H62.9c-0.3-0.8-0.6-1.7-0.8-2.5H94.6z
				 M61.8,107.1c0.1-0.8,0.3-1.6,0.5-2.4h39.7c0.2,0.8,0.4,1.6,0.5,2.4H61.8z M82.2,89.1c8.7,4.4,16.8,7.7,19.5,14.6H62.7
				C65.2,96.7,74.8,92.9,82.2,89.1z M105.8,101c3.8,8.5,1.4,19.4-7.8,27.1c-1.6,1.4-3.8-1.1-2.1-2.5c6.5-5.4,9.1-12.7,8.2-18.5
				C103,96.7,93,93,83.9,88.3l3.6-1.8C94.7,90.1,102.5,93.6,105.8,101z M107.4,65C106,75.5,95.7,80.5,87.5,84.7
				c-0.1,0.1-5.6,2.9-5.2,2.7c-0.1,0.1-7.2,3.7-6.8,3.5c-5.9,3-12.2,6.4-14.3,12.8c-1.3,3.4-1.3,7.7,0.2,11.9
				c3.2,9,9.5,9.8,7.4,12.4c-0.6,0.7-1.6,0.8-2.3,0.2c-5.1-4.3-8.8-10.4-9.4-16.9C55.6,97,66.7,91.7,77,86.4
				c0.1-0.1,5.6-2.9,5.3-2.7c0.1-0.1,6-3.1,5.6-2.9c5-2.6,10.6-5.4,13.7-10c2-2.8,3.2-6.4,2.5-9.8c-4-19.4-48.2-17.4-65.2-55.4
				c-0.2-0.4-0.2-0.9,0-1.3c0.2-0.4,0.5-0.7,0.9-0.9c0.2-0.1,0.4-0.1,0.7-0.1c0.6,0,1.2,0.4,1.5,1c1.2,2.8,2.7,5.5,4.4,8.1
				c4.2,6.5,9.9,11.8,10,11.8C73.2,39.6,110,44.9,107.4,65z M119.2,10.4c-2.2,15.2-15.6,24.8-29.6,30.8c-1.5-0.8-2.8-1.4-3.9-2
				c13.2-5.3,26.8-13.4,29.9-27.3c0.1-0.3,0.2-0.7,0.2-1c0.1-0.4,0.1-0.7,0.2-1.1c0.1-0.8,0.8-1.4,1.6-1.4c0.1,0,0.2,0,0.2,0
				C118.7,8.6,119.3,9.5,119.2,10.4z" class="color553045 svgShape"></path><path fill="#767fad" d="M47.4 127.6c-1 .1-2.9.4-3.9.5-3.3.4-3.7.6-3.9.6 0 0 .5 0 1.2 0 1.9 0 6.4.4 6.8.3C48.6 129 48.4 127.5 47.4 127.6zM15 90.4c-.3.1-.7.2-1.1.5-.8.5-1.7 1.3-2.1 2.4-.1.2-.2.5-.3.8-.1.3-.1.5-.2.8-.1.5-.1 1-.1 1.4 0 .8.2 1.3.2 1.3s0-.5.1-1.3c0-.4.1-.8.3-1.3.1-.2.2-.5.3-.7.1-.2.2-.4.4-.7.3-.4.6-.8 1-1 .4-.3.7-.5 1-.6.4-.2.7-.2 1-.2.1 0 .1 0 .2 0 .4-.1.7-.5.6-.9C16.1 90.2 15.6 90.2 15 90.4zM31.8 60.2c1.3-.7 2.7-.8 2.6-.8 1-.2.7-1.7-.3-1.5-3.6.8-6.6 3.9-6.6 10.1C27.6 67.8 27.9 62.2 31.8 60.2z" class="color553045 svgShape"></path></svg></g></svg>